# xmcd CD database file
#
# Track frame offsets:
#	150
#	21760
#	43507
#	61573
#	87225
#	113177
#	131072
#	156145
#	171350
#	183600
#	201994
#	216669
#	242908
#	269945
#
# Disc length: 3923 seconds
#
# Revision: 0
# Processed by: cddbd v1.4PL0 Copyright (c) Steve Scherf et al.
# Submitted via: CDex 1.50
#
DISCID=d60f510e
DTITLE=Various Artist - NAV September 2001 Sampler
DYEAR=2001
DGENRE=New Age
TTITLE0=Esperanza - Mi Tierra
TTITLE1=Jim Wilson - Cape of Good Hope
TTITLE2=I Muvrini - Noi
TTITLE3=Alex Cline Ensemble - Paramita
TTITLE4=Tom Kenyon - Magic
TTITLE5=Patrick Lee Hadley - Egypticat (on the Prowl)
TTITLE6=Kenny Kleinpeter - Dance of the Woodies
TTITLE7=Si Sé - Steppin' Out
TTITLE8=Jeanette Alexander - Storyteller
TTITLE9=BeatleJazz - I'll Follow the Sun
TTITLE10=Dulce Pontes - O Primeiro Canto
TTITLE11=Richard Shulman and Samuel Welsh - The Holy Grail
TTITLE12=Drala - Surya Namaskar
TTITLE13=Barry Douglas - Reflections of Green
EXTD=YEAR: 2001
EXTT0=
EXTT1=
EXTT2=
EXTT3=
EXTT4=
EXTT5=
EXTT6=
EXTT7=
EXTT8=
EXTT9=
EXTT10=
EXTT11=
EXTT12=
EXTT13=
PLAYORDER=
